# xmcd
#
# Track frame offsets:
#        150
#        20300
#        49732
#
# Disc length: 844 seconds
#
# Revision: 0
# Processed by: cddbd v1.5.1PL2 Copyright (c) Steve Scherf et al.
# Submitted via: ExactAudioCopy v0.95b3
#
DISCID=1a034a03
DTITLE=Yngwie Malmsteen - POWER AND GLORY
DYEAR=1994
DGENRE=Heavy Metal
TTITLE0=POWER AND GLORY -Takada's theme-
TTITLE1=SEVENTH SIGN
TTITLE2=POWER AND GLORY -Takada's theme- (stadium edit)
EXTD=
EXTT0=
EXTT1=
EXTT2=
PLAYORDER=
